<svg id="visual" viewBox="0 0 900 300" width="900" height="300" xmlns="http://www.w3.org/2000/svg" xmlns:xlink="http://www.w3.org/1999/xlink" version="1.1"><rect x="0" y="0" width="900" height="300" fill="#dd3f31"></rect><path d="M0 237L15 235.5C30 234 60 231 90 228.2C120 225.3 150 222.7 180 224.3C210 226 240 232 270 236.5C300 241 330 244 360 243.7C390 243.3 420 239.7 450 235.3C480 231 510 226 540 226.8C570 227.7 600 234.3 630 233.7C660 233 690 225 720 223.7C750 222.3 780 227.7 810 223.8C840 220 870 207 885 200.5L900 194L900 0L885 0C870 0 840 0 810 0C780 0 750 0 720 0C690 0 660 0 630 0C600 0 570 0 540 0C510 0 480 0 450 0C420 0 390 0 360 0C330 0 300 0 270 0C240 0 210 0 180 0C150 0 120 0 90 0C60 0 30 0 15 0L0 0Z" fill="#dd3f31"></path><path d="M0 174L15 174.5C30 175 60 176 90 178.8C120 181.7 150 186.3 180 185.5C210 184.7 240 178.3 270 175.5C300 172.7 330 173.3 360 176C390 178.7 420 183.3 450 187.5C480 191.7 510 195.3 540 195.5C570 195.7 600 192.3 630 192.3C660 192.3 690 195.7 720 196C750 196.3 780 193.7 810 191.3C840 189 870 187 885 186L900 185L900 0L885 0C870 0 840 0 810 0C780 0 750 0 720 0C690 0 660 0 630 0C600 0 570 0 540 0C510 0 480 0 450 0C420 0 390 0 360 0C330 0 300 0 270 0C240 0 210 0 180 0C150 0 120 0 90 0C60 0 30 0 15 0L0 0Z" fill="#cb2d4e"></path><path d="M0 186L15 187C30 188 60 190 90 187.5C120 185 150 178 180 177C210 176 240 181 270 181.5C300 182 330 178 360 174.5C390 171 420 168 450 166.5C480 165 510 165 540 160.8C570 156.7 600 148.3 630 150C660 151.7 690 163.3 720 166C750 168.7 780 162.3 810 162.2C840 162 870 168 885 171L900 174L900 0L885 0C870 0 840 0 810 0C780 0 750 0 720 0C690 0 660 0 630 0C600 0 570 0 540 0C510 0 480 0 450 0C420 0 390 0 360 0C330 0 300 0 270 0C240 0 210 0 180 0C150 0 120 0 90 0C60 0 30 0 15 0L0 0Z" fill="#ae2c62"></path><path d="M0 144L15 144.7C30 145.3 60 146.7 90 145.8C120 145 150 142 180 141.2C210 140.3 240 141.7 270 141.7C300 141.7 330 140.3 360 139.2C390 138 420 137 450 134.8C480 132.7 510 129.3 540 126.7C570 124 600 122 630 122.2C660 122.3 690 124.7 720 125.5C750 126.3 780 125.7 810 127.8C840 130 870 135 885 137.5L900 140L900 0L885 0C870 0 840 0 810 0C780 0 750 0 720 0C690 0 660 0 630 0C600 0 570 0 540 0C510 0 480 0 450 0C420 0 390 0 360 0C330 0 300 0 270 0C240 0 210 0 180 0C150 0 120 0 90 0C60 0 30 0 15 0L0 0Z" fill="#8a336b"></path><path d="M0 124L15 120.2C30 116.3 60 108.7 90 103.8C120 99 150 97 180 98.2C210 99.3 240 103.7 270 106.5C300 109.3 330 110.7 360 109.5C390 108.3 420 104.7 450 105.5C480 106.3 510 111.7 540 112.5C570 113.3 600 109.7 630 108C660 106.3 690 106.7 720 104.3C750 102 780 97 810 94.5C840 92 870 92 885 92L900 92L900 0L885 0C870 0 840 0 810 0C780 0 750 0 720 0C690 0 660 0 630 0C600 0 570 0 540 0C510 0 480 0 450 0C420 0 390 0 360 0C330 0 300 0 270 0C240 0 210 0 180 0C150 0 120 0 90 0C60 0 30 0 15 0L0 0Z" fill="#64366a"></path><path d="M0 83L15 82.5C30 82 60 81 90 81.2C120 81.3 150 82.7 180 86.7C210 90.7 240 97.3 270 94.7C300 92 330 80 360 74.2C390 68.3 420 68.7 450 69.5C480 70.3 510 71.7 540 74C570 76.3 600 79.7 630 84.5C660 89.3 690 95.7 720 95.5C750 95.3 780 88.7 810 83.2C840 77.7 870 73.3 885 71.2L900 69L900 0L885 0C870 0 840 0 810 0C780 0 750 0 720 0C690 0 660 0 630 0C600 0 570 0 540 0C510 0 480 0 450 0C420 0 390 0 360 0C330 0 300 0 270 0C240 0 210 0 180 0C150 0 120 0 90 0C60 0 30 0 15 0L0 0Z" fill="#42365d"></path><path d="M0 66L15 62.7C30 59.3 60 52.7 90 50.7C120 48.7 150 51.3 180 53.7C210 56 240 58 270 61C300 64 330 68 360 66.2C390 64.3 420 56.7 450 53.7C480 50.7 510 52.3 540 54C570 55.7 600 57.3 630 59.3C660 61.3 690 63.7 720 66.2C750 68.7 780 71.3 810 72C840 72.7 870 71.3 885 70.7L900 70L900 0L885 0C870 0 840 0 810 0C780 0 750 0 720 0C690 0 660 0 630 0C600 0 570 0 540 0C510 0 480 0 450 0C420 0 390 0 360 0C330 0 300 0 270 0C240 0 210 0 180 0C150 0 120 0 90 0C60 0 30 0 15 0L0 0Z" fill="#2a3049"></path><path d="M0 32L15 32.5C30 33 60 34 90 36C120 38 150 41 180 41C210 41 240 38 270 37.7C300 37.3 330 39.7 360 37.5C390 35.3 420 28.7 450 27.3C480 26 510 30 540 31C570 32 600 30 630 28C660 26 690 24 720 24.5C750 25 780 28 810 30.8C840 33.7 870 36.3 885 37.7L900 39L900 0L885 0C870 0 840 0 810 0C780 0 750 0 720 0C690 0 660 0 630 0C600 0 570 0 540 0C510 0 480 0 450 0C420 0 390 0 360 0C330 0 300 0 270 0C240 0 210 0 180 0C150 0 120 0 90 0C60 0 30 0 15 0L0 0Z" fill="#202731"></path></svg>